<?xml version="1.0" encoding="UTF-8" standalone="no"?>
<svg
   version="1.1"
   viewBox="0 0 499.99998 500.00001"
   overflow="visible"
   enable-background="new 0 0 478.619 184.676"
   xml:space="preserve"
   id="svg20"
   sodipodi:docname="favicon.svg"
   inkscape:version="1.2.2 (b0a8486541, 2022-12-01)"
   width="500"
   height="500"
   inkscape:export-filename="public/favicon.png"
   inkscape:export-xdpi="9.22639"
   inkscape:export-ydpi="9.22639"
   xmlns:inkscape="http://www.inkscape.org/namespaces/inkscape"
   xmlns:sodipodi="http://sodipodi.sourceforge.net/DTD/sodipodi-0.dtd"
   xmlns="http://www.w3.org/2000/svg"
   xmlns:svg="http://www.w3.org/2000/svg"><defs
   id="defs24" /><sodipodi:namedview
   id="namedview22"
   pagecolor="#ffffff"
   bordercolor="#666666"
   borderopacity="1.0"
   inkscape:showpageshadow="2"
   inkscape:pageopacity="0.0"
   inkscape:pagecheckerboard="0"
   inkscape:deskcolor="#d1d1d1"
   showgrid="false"
   inkscape:zoom="1.2779138"
   inkscape:cx="193.67504"
   inkscape:cy="218.71585"
   inkscape:window-width="1920"
   inkscape:window-height="1020"
   inkscape:window-x="0"
   inkscape:window-y="0"
   inkscape:window-maximized="1"
   inkscape:current-layer="g18" />
<g
   id="g18">
    
    
    
    
    
    
    
    <g
   id="g319"
   transform="matrix(2.5095167,2.5095167,-2.5095167,2.5095167,-164.17769,-578.92476)"
   style="fill:#ff7800;fill-opacity:1"><path
     stroke="#000000"
     stroke-width="4"
     d="m 192.044,46.054 c 0,0 -1.475,4.952 0.21,7.375 1.686,2.423 24.86,1.791 24.86,1.791 L 205.845,45 Z"
     id="path2"
     style="fill:#ff7800;fill-opacity:1" /><path
     stroke="#000000"
     stroke-width="4"
     d="m 9.831,23.198 c 0,0 119.181,32.087 233.779,32.087 114.598,0 214.679,-51.187 218.5,-53.479 3.819,-2.292 12.987,38.963 0.765,48.131 C 450.65,59.105 381.892,98.833 246.667,98.833 111.441,98.833 13.652,77.441 6.775,69.801 -0.101,62.161 -0.101,31.602 9.831,23.198 Z"
     id="path4"
     style="fill:#ff7800;fill-opacity:1" /><path
     stroke="#000000"
     stroke-width="4"
     d="m 252.014,126.336 c 0,0 -22.156,-6.112 -28.268,-21.392 -6.111,-15.279 58.827,-29.795 58.827,-29.795 l -6.112,31.324 z"
     id="path6"
     style="fill:#ff7800;fill-opacity:1" /><path
     stroke="#000000"
     stroke-width="4"
     d="m 195.479,102.652 c 0,0 30.56,21.392 35.143,19.1 4.584,-2.292 58.827,-36.671 58.827,-36.671 l -45.839,-33.616 -50.423,38.2 z"
     id="path8"
     style="fill:#ff7800;fill-opacity:1" /><path
     stroke="#000000"
     stroke-width="4"
     d="m 22.818,152.312 c 0,0 125.293,-76.398 200.928,-106.958 75.635,-30.56 30.56,29.031 30.56,29.031 0,0 -78.69,38.199 -110.778,57.299 -32.088,19.1 -81.746,50.424 -87.858,51.188 -6.112,0.763 -32.852,-30.56 -32.852,-30.56 z"
     id="path10"
     style="fill:#ff7800;fill-opacity:1" /><path
     stroke="#000000"
     stroke-width="4"
     d="m 255.967,27.303 c 0,0 -5.29,-1.851 -14.146,8.46 -8.857,10.312 15.07,8.197 15.07,8.197 z"
     id="path12"
     style="fill:#ff7800;fill-opacity:1" /><path
     stroke="#000000"
     stroke-width="4"
     d="m 232.15,28.546 c 0,0 94.734,49.659 127.586,60.355 32.851,10.696 113.832,46.603 116.889,55.771 3.057,9.168 -27.503,30.559 -27.503,30.559 0,0 -23.685,-21.391 -54.243,-34.379 C 364.319,127.865 311.605,106.473 282.573,92.721 253.542,78.97 193.186,45.354 193.186,45.354 Z"
     id="path14"
     style="fill:#ff7800;fill-opacity:1" /><path
     stroke="#000000"
     stroke-width="4"
     d="m 255.834,27.782 c 0,0 -2.292,92.442 -4.584,97.026 -2.293,4.584 42.783,-12.987 43.546,-18.335 0.765,-5.349 6.877,-50.423 2.293,-55.007 -4.584,-4.584 -36.672,-25.976 -41.255,-23.684 z"
     id="path16"
     style="fill:#ff7800;fill-opacity:1" /></g>
</g>
</svg>
